{"accessors":[{"bufferView":2,"componentType":5126,"count":2248,"max":[-0.6422312259674072,3.812927722930908,2.6577394008636475],"min":[-1.0541841983795166,0.1429973840713501,-0.6886383295059204],"type":"VEC3"},{"bufferView":2,"byteOffset":26976,"componentType":5126,"count":2248,"max":[1,1,1],"min":[-1,-1,-1],"type":"VEC3"},{"bufferView":1,"componentType":5126,"count":2248,"max":[0.9785611629486084,0.9980080127716064],"min":[0.0019532160367816687,0.0019920319318771362],"type":"VEC2"},{"bufferView":0,"componentType":5125,"count":6000,"type":"SCALAR"}],"asset":{"extras":{"author":"maney (https://sketchfab.com/maney)","license":"CC-BY-4.0 (http://creativecommons.org/licenses/by/4.0/)","source":"https://sketchfab.com/3d-models/ds-game-card-822e8ff1a12946048a8fa9dbadf3379d","title":"DS game card"},"generator":"Sketchfab-12.66.0","version":"2.0"},"bufferViews":[{"buffer":0,"byteLength":24000,"name":"floatBufferViews","target":34963},{"buffer":0,"byteLength":17984,"byteOffset":24000,"byteStride":8,"name":"floatBufferViews","target":34962},{"buffer":0,"byteLength":53952,"byteOffset":41984,"byteStride":12,"name":"floatBufferViews","target":34962}],"buffers":[{"byteLength":95936,"uri":"scene.bin"}],"images":[{"uri":"base.jpg","mimeType":"image/jpeg"},{"uri":"mr.jpg","mimeType":"image/jpeg"}],"materials":[{"doubleSided":true,"name":"lambert1","pbrMetallicRoughness":{"baseColorTexture":{"index":0},"metallicRoughnessTexture":{"index":1}}}],"meshes":[{"name":"pCube1_lambert1_0","primitives":[{"attributes":{"NORMAL":1,"POSITION":0,"TEXCOORD_0":2},"indices":3,"material":0,"mode":4}]}],"nodes":[{"children":[1],"matrix":[1,0,0,0,0,2.220446049250313e-16,-1,0,0,1,2.220446049250313e-16,0,0,0,0,1],"name":"Sketchfab_model"},{"children":[2],"matrix":[0.009999999776482582,0,0,0,0,0,0.009999999776482582,0,0,-0.009999999776482582,0,0,0,0,0,1],"name":"c64c1d8c02cd4f37934a00f11b3d282a.fbx"},{"children":[3],"name":"RootNode"},{"children":[4],"name":"pCube1"},{"mesh":0,"name":"pCube1_lambert1_0"}],"samplers":[{"magFilter":9729,"minFilter":9987,"wrapS":10497,"wrapT":10497}],"scene":0,"scenes":[{"name":"Sketchfab_Scene","nodes":[0]}],"textures":[{"sampler":0,"source":0},{"sampler":0,"source":1}]}