{"accessors":[{"bufferView":2,"componentType":5126,"count":3255,"max":[3.11080002784729,3.859541416168213,0.6617846488952637],"min":[-3.11080002784729,0.30002331733703613,-0.0507277250289917],"type":"VEC3"},{"bufferView":2,"byteOffset":39060,"componentType":5126,"count":3255,"max":[1,1,1],"min":[-1,-1,-1],"type":"VEC3"},{"bufferView":3,"componentType":5126,"count":3255,"max":[1,1,1,1],"min":[-1,-1,-1,1],"type":"VEC4"},{"bufferView":1,"componentType":5126,"count":3255,"max":[0.9833844900131226,0.9876327514648438],"min":[0.014054943807423115,0.007084444165229797],"type":"VEC2"},{"bufferView":0,"componentType":5125,"count":17406,"type":"SCALAR"}],"asset":{"extras":{"author":"thegraphicsgeek (https://sketchfab.com/thegraphicsgeek)","license":"CC-BY-4.0 (http://creativecommons.org/licenses/by/4.0/)","source":"https://sketchfab.com/3d-models/pokemon-cartridge-gameboy-7d79300f91a441d0ba520fdbd268aa5f","title":"Pokemon Cartridge (Gameboy)"},"generator":"Sketchfab-14.86.0","version":"2.0"},"bufferViews":[{"buffer":0,"byteLength":69624,"name":"floatBufferViews","target":34963},{"buffer":0,"byteLength":26040,"byteOffset":69624,"byteStride":8,"name":"floatBufferViews","target":34962},{"buffer":0,"byteLength":78120,"byteOffset":95664,"byteStride":12,"name":"floatBufferViews","target":34962},{"buffer":0,"byteLength":52080,"byteOffset":173784,"byteStride":16,"name":"floatBufferViews","target":34962}],"buffers":[{"byteLength":225864,"uri":"scene.bin"}],"images":[{"uri":"base.jpg","mimeType":"image/jpeg"},{"uri":"mr.jpg","mimeType":"image/jpeg"},{"uri":"normal.jpg","mimeType":"image/jpeg"}],"materials":[{"doubleSided":true,"name":"Cartridge_MAT","normalTexture":{"index":2},"pbrMetallicRoughness":{"baseColorTexture":{"index":0},"metallicRoughnessTexture":{"index":1}}}],"meshes":[{"name":"Cartridge_geo_Cartridge_MAT_0","primitives":[{"attributes":{"NORMAL":1,"POSITION":0,"TANGENT":2,"TEXCOORD_0":3},"indices":4,"material":0,"mode":4}]}],"nodes":[{"children":[1],"matrix":[1,0,0,0,0,2.220446049250313e-16,-1,0,0,1,2.220446049250313e-16,0,0,0,0,1],"name":"Sketchfab_model"},{"children":[2],"matrix":[1,0,0,0,0,0,1,0,0,-1,0,0,0,0,0,1],"name":"GBA_SP_Cartridge_Sketchfab_Final.001.fbx"},{"children":[3],"name":"RootNode"},{"children":[4],"matrix":[0.009999999776482582,0,0,0,0,0.009999999776482582,0,0,0,0,0.009999999776482582,0,0,0,0,1],"name":"Cartridge_geo"},{"mesh":0,"name":"Cartridge_geo_Cartridge_MAT_0"}],"samplers":[{"magFilter":9729,"minFilter":9987,"wrapS":10497,"wrapT":10497}],"scene":0,"scenes":[{"name":"Sketchfab_Scene","nodes":[0]}],"textures":[{"sampler":0,"source":0},{"sampler":0,"source":1},{"sampler":0,"source":2}]}