{"accessors":[{"bufferView":2,"componentType":5126,"count":1751,"max":[1.7147691249847412,1.6647276878356934,0.15256178379058838],"min":[-1.537261962890625,-1.6647276878356934,-0.18256202340126038],"type":"VEC3"},{"bufferView":2,"byteOffset":21012,"componentType":5126,"count":1751,"max":[1,1,1],"min":[-1,-1,-1],"type":"VEC3"},{"bufferView":3,"componentType":5126,"count":1751,"max":[1,0.7047631740570068,1,1],"min":[-0.6607109308242798,-1,-1,1],"type":"VEC4"},{"bufferView":1,"componentType":5126,"count":1751,"max":[1,0.924031138420105],"min":[0,0],"type":"VEC2"},{"bufferView":0,"componentType":5125,"count":4602,"type":"SCALAR"},{"bufferView":2,"byteOffset":42024,"componentType":5126,"count":3212,"max":[1.75,1.75,0.27000001072883606],"min":[-1.75,-1.75,-0.21000000834465027],"type":"VEC3"},{"bufferView":2,"byteOffset":80568,"componentType":5126,"count":3212,"max":[1,1,1],"min":[-1,-1,-1],"type":"VEC3"},{"bufferView":3,"byteOffset":28016,"componentType":5126,"count":3212,"max":[1,1,1,1],"min":[-0.00004127557258470915,-1,-1,1],"type":"VEC4"},{"bufferView":1,"byteOffset":14008,"componentType":5126,"count":3212,"max":[0.9980080127716064,0.9501595497131348],"min":[0.0019920319318771362,0.0018965261988341808],"type":"VEC2"},{"bufferView":0,"byteOffset":18408,"componentType":5125,"count":7101,"type":"SCALAR"}],"asset":{"extras":{"author":"JodieWebster (https://sketchfab.com/JodieWebster)","license":"CC-BY-4.0 (http://creativecommons.org/licenses/by/4.0/)","source":"https://sketchfab.com/3d-models/3ds-game-cartridge-950a6bf7c4094a84af0d7409d0e76c16","title":"3DS Game Cartridge"},"generator":"Sketchfab-16.75.0","version":"2.0"},"bufferViews":[{"buffer":0,"byteLength":46812,"name":"floatBufferViews","target":34963},{"buffer":0,"byteLength":39704,"byteOffset":46812,"byteStride":8,"name":"floatBufferViews","target":34962},{"buffer":0,"byteLength":119112,"byteOffset":86516,"byteStride":12,"name":"floatBufferViews","target":34962},{"buffer":0,"byteLength":79408,"byteOffset":205628,"byteStride":16,"name":"floatBufferViews","target":34962}],"buffers":[{"byteLength":285036,"uri":"scene.bin"}],"images":[{"uri":"base.jpg","mimeType":"image/jpeg"},{"uri":"mr.jpg","mimeType":"image/jpeg"},{"uri":"normal.jpg","mimeType":"image/jpeg"},{"uri":"chip.jpg","mimeType":"image/jpeg"},{"uri":"chip-mr.jpg","mimeType":"image/jpeg"},{"uri":"chip-normal.jpg","mimeType":"image/jpeg"}],"materials":[{"doubleSided":true,"name":"lambert2","normalTexture":{"index":2},"occlusionTexture":{"index":1},"pbrMetallicRoughness":{"baseColorTexture":{"index":0},"metallicFactor":0,"metallicRoughnessTexture":{"index":1},"roughnessFactor":0.6}},{"doubleSided":true,"name":"lambert3","normalTexture":{"index":5},"occlusionTexture":{"index":4},"pbrMetallicRoughness":{"baseColorTexture":{"index":3},"metallicFactor":0,"metallicRoughnessTexture":{"index":4},"roughnessFactor":0.6}}],"meshes":[{"name":"DS_CARTRIDGE_lambert2_0","primitives":[{"attributes":{"NORMAL":1,"POSITION":0,"TANGENT":2,"TEXCOORD_0":3},"indices":4,"material":0,"mode":4}]},{"name":"DS_Game_Chip1_lambert3_0","primitives":[{"attributes":{"NORMAL":6,"POSITION":5,"TANGENT":7,"TEXCOORD_0":8},"indices":9,"material":1,"mode":4}]}],"nodes":[{"children":[1],"matrix":[1,0,0,0,0,2.220446049250313e-16,-1,0,0,1,2.220446049250313e-16,0,0,0,0,1],"name":"Sketchfab_model"},{"children":[2],"matrix":[0.009999999776482582,0,0,0,0,0,0.009999999776482582,0,0,-0.009999999776482582,0,0,0,0,0,1],"name":"62ded034edcf469aa168140241c286af.fbx"},{"children":[3,5],"name":"RootNode"},{"children":[4],"name":"DS_CARTRIDGE"},{"mesh":0,"name":"DS_CARTRIDGE_lambert2_0"},{"children":[6],"matrix":[-0.6322653889656067,7.743017848083864e-17,-7.743017848083866e-17,0,1.081867025483892e-16,0.8834114670753479,1.081867025483892e-16,0,8.548045229131921e-18,8.548045229131918e-18,-0.06980008631944656,0,0,0.06639698147773743,0.01593545824289322,1],"name":"DS_Game_Chip1"},{"mesh":1,"name":"DS_Game_Chip1_lambert3_0"}],"samplers":[{"magFilter":9729,"minFilter":9987,"wrapS":10497,"wrapT":10497}],"scene":0,"scenes":[{"name":"Sketchfab_Scene","nodes":[0]}],"textures":[{"sampler":0,"source":0},{"sampler":0,"source":1},{"sampler":0,"source":2},{"sampler":0,"source":3},{"sampler":0,"source":4},{"sampler":0,"source":5}]}