{"accessors":[{"bufferView":2,"componentType":5126,"count":45,"max":[0.06292414665222168,0.011419489979743958,0.1398211568593979],"min":[-0.06292438507080078,-0.011445745825767517,-0.13985826075077057],"type":"VEC3"},{"bufferView":2,"byteOffset":540,"componentType":5126,"count":45,"max":[1,1,0.6688764095306396],"min":[-1,-1,-0.6690862774848938],"type":"VEC3"},{"bufferView":1,"componentType":5126,"count":45,"max":[1,1],"min":[0,0],"type":"VEC2"},{"bufferView":0,"componentType":5125,"count":96,"type":"SCALAR"},{"bufferView":2,"byteOffset":1080,"componentType":5126,"count":64,"max":[1.047547459602356,0,18.2313175201416],"min":[-1,-0.0002954155206680298,-5.4172444343566895],"type":"VEC3"},{"bufferView":2,"byteOffset":1848,"componentType":5126,"count":64,"max":[0,1,0],"min":[0,1,0],"type":"VEC3"},{"bufferView":1,"byteOffset":360,"componentType":5126,"count":64,"max":[1,1],"min":[0,0],"type":"VEC2"},{"bufferView":0,"byteOffset":384,"componentType":5125,"count":96,"type":"SCALAR"},{"bufferView":2,"byteOffset":2616,"componentType":5126,"count":4,"max":[1,0,5.439223766326904],"min":[-1,0,3.4392237663269043],"type":"VEC3"},{"bufferView":2,"byteOffset":2664,"componentType":5126,"count":4,"max":[0,1,0],"min":[0,1,0],"type":"VEC3"},{"bufferView":1,"byteOffset":872,"componentType":5126,"count":4,"max":[1,1],"min":[0,0],"type":"VEC2"},{"bufferView":0,"byteOffset":768,"componentType":5125,"count":6,"type":"SCALAR"},{"bufferView":2,"byteOffset":2712,"componentType":5126,"count":4,"max":[1,0,1],"min":[-1,0,-1],"type":"VEC3"},{"bufferView":2,"byteOffset":2760,"componentType":5126,"count":4,"max":[0,1,0],"min":[0,1,0],"type":"VEC3"},{"bufferView":1,"byteOffset":904,"componentType":5126,"count":4,"max":[1,1],"min":[0,0],"type":"VEC2"},{"bufferView":0,"byteOffset":792,"componentType":5125,"count":6,"type":"SCALAR"},{"bufferView":2,"byteOffset":2808,"componentType":5126,"count":2060,"max":[1.363088846206665,0.13048823177814484,1.0089188814163208],"min":[-1.4771382808685303,-0.14349572360515594,-1.0124614238739014],"type":"VEC3"},{"bufferView":2,"byteOffset":27528,"componentType":5126,"count":2060,"max":[1,1,1],"min":[-1,-1,-1],"type":"VEC3"},{"bufferView":1,"byteOffset":936,"componentType":5126,"count":2060,"max":[1,1],"min":[0,0.07806557416915894],"type":"VEC2"},{"bufferView":0,"byteOffset":816,"componentType":5125,"count":3714,"type":"SCALAR"},{"bufferView":2,"byteOffset":52248,"componentType":5126,"count":1809,"max":[1.6865280866622925,0.1365043669939041,1.0682286024093628],"min":[-1.6134721040725708,-0.14349572360515594,-1.071771264076233],"type":"VEC3"},{"bufferView":2,"byteOffset":73956,"componentType":5126,"count":1809,"max":[1,1,1],"min":[-1,-1,-1],"type":"VEC3"},{"bufferView":1,"byteOffset":17416,"componentType":5126,"count":1809,"max":[0.8750000596046448,1],"min":[0.125,0],"type":"VEC2"},{"bufferView":0,"byteOffset":15672,"componentType":5125,"count":4380,"type":"SCALAR"},{"bufferView":2,"byteOffset":95664,"componentType":5126,"count":8,"max":[-1.486352801322937,0.13084080815315247,0.2975711524486542],"min":[-1.5062878131866455,-0.13764533400535583,-0.3011839687824249],"type":"VEC3"},{"bufferView":2,"byteOffset":95760,"componentType":5126,"count":8,"max":[0,1,0],"min":[0,-1,0],"type":"VEC3"},{"bufferView":1,"byteOffset":31888,"componentType":5126,"count":8,"max":[0.8714677095413208,1],"min":[0,0.35171276330947876],"type":"VEC2"},{"bufferView":0,"byteOffset":33192,"componentType":5125,"count":12,"type":"SCALAR"},{"bufferView":2,"byteOffset":95856,"componentType":5126,"count":45,"max":[0.06292414665222168,0.011419489979743958,0.1398211568593979],"min":[-0.06292438507080078,-0.011445745825767517,-0.13985826075077057],"type":"VEC3"},{"bufferView":2,"byteOffset":96396,"componentType":5126,"count":45,"max":[1,1,0.6688764095306396],"min":[-1,-1,-0.6690862774848938],"type":"VEC3"},{"bufferView":1,"byteOffset":31952,"componentType":5126,"count":45,"max":[1,1],"min":[0,0],"type":"VEC2"},{"bufferView":0,"byteOffset":33240,"componentType":5125,"count":96,"type":"SCALAR"},{"bufferView":2,"byteOffset":96936,"componentType":5126,"count":64,"max":[1.047547459602356,0,18.2313175201416],"min":[-1,-0.0002954155206680298,-5.4172444343566895],"type":"VEC3"},{"bufferView":2,"byteOffset":97704,"componentType":5126,"count":64,"max":[0,1,0],"min":[0,1,0],"type":"VEC3"},{"bufferView":1,"byteOffset":32312,"componentType":5126,"count":64,"max":[1,1],"min":[0,0],"type":"VEC2"},{"bufferView":0,"byteOffset":33624,"componentType":5125,"count":96,"type":"SCALAR"},{"bufferView":2,"byteOffset":98472,"componentType":5126,"count":4,"max":[1,0,5.439223766326904],"min":[-1,0,3.4392237663269043],"type":"VEC3"},{"bufferView":2,"byteOffset":98520,"componentType":5126,"count":4,"max":[0,1,0],"min":[0,1,0],"type":"VEC3"},{"bufferView":1,"byteOffset":32824,"componentType":5126,"count":4,"max":[1,1],"min":[0,0],"type":"VEC2"},{"bufferView":0,"byteOffset":34008,"componentType":5125,"count":6,"type":"SCALAR"},{"bufferView":2,"byteOffset":98568,"componentType":5126,"count":4,"max":[1,0,1],"min":[-1,0,-1],"type":"VEC3"},{"bufferView":2,"byteOffset":98616,"componentType":5126,"count":4,"max":[0,1,0],"min":[0,1,0],"type":"VEC3"},{"bufferView":1,"byteOffset":32856,"componentType":5126,"count":4,"max":[1,1],"min":[0,0],"type":"VEC2"},{"bufferView":0,"byteOffset":34032,"componentType":5125,"count":6,"type":"SCALAR"},{"bufferView":2,"byteOffset":98664,"componentType":5126,"count":2060,"max":[1.363088846206665,0.13048823177814484,1.0089188814163208],"min":[-1.4771382808685303,-0.14349572360515594,-1.0124614238739014],"type":"VEC3"},{"bufferView":2,"byteOffset":123384,"componentType":5126,"count":2060,"max":[1,1,1],"min":[-1,-1,-1],"type":"VEC3"},{"bufferView":1,"byteOffset":32888,"componentType":5126,"count":2060,"max":[1,1],"min":[0,0.015481948852539062],"type":"VEC2"},{"bufferView":0,"byteOffset":34056,"componentType":5125,"count":3714,"type":"SCALAR"},{"bufferView":2,"byteOffset":148104,"componentType":5126,"count":1809,"max":[1.6865280866622925,0.1365043669939041,1.0682286024093628],"min":[-1.6134721040725708,-0.14349572360515594,-1.071771264076233],"type":"VEC3"},{"bufferView":2,"byteOffset":169812,"componentType":5126,"count":1809,"max":[1,1,1],"min":[-1,-1,-1],"type":"VEC3"},{"bufferView":1,"byteOffset":49368,"componentType":5126,"count":1809,"max":[0.8750000596046448,1],"min":[0.125,0],"type":"VEC2"},{"bufferView":0,"byteOffset":48912,"componentType":5125,"count":4380,"type":"SCALAR"},{"bufferView":2,"byteOffset":191520,"componentType":5126,"count":8,"max":[-1.486352801322937,0.13084080815315247,0.2975711524486542],"min":[-1.5062878131866455,-0.13764533400535583,-0.3011839687824249],"type":"VEC3"},{"bufferView":2,"byteOffset":191616,"componentType":5126,"count":8,"max":[0,1,0],"min":[0,-1,0],"type":"VEC3"},{"bufferView":1,"byteOffset":63840,"componentType":5126,"count":8,"max":[0.8714677095413208,1],"min":[0,0.35171276330947876],"type":"VEC2"},{"bufferView":0,"byteOffset":66432,"componentType":5125,"count":12,"type":"SCALAR"},{"bufferView":2,"byteOffset":191712,"componentType":5126,"count":2418,"max":[5.176784515380859,0,0.16010674834251404],"min":[0,-0.059999994933605194,-0.5350233912467957],"type":"VEC3"},{"bufferView":2,"byteOffset":220728,"componentType":5126,"count":2418,"max":[1,1,1],"min":[-1,-1,-1],"type":"VEC3"},{"bufferView":1,"byteOffset":63904,"componentType":5126,"count":2418,"max":[1,1],"min":[0,1],"type":"VEC2"},{"bufferView":0,"byteOffset":66480,"componentType":5125,"count":4752,"type":"SCALAR"},{"bufferView":2,"byteOffset":249744,"componentType":5126,"count":64,"max":[1.047547459602356,0,18.2313175201416],"min":[-1,-0.0002954155206680298,-5.4172444343566895],"type":"VEC3"},{"bufferView":2,"byteOffset":250512,"componentType":5126,"count":64,"max":[0,1,0],"min":[0,1,0],"type":"VEC3"},{"bufferView":1,"byteOffset":83248,"componentType":5126,"count":64,"max":[1,1],"min":[0,0],"type":"VEC2"},{"bufferView":0,"byteOffset":85488,"componentType":5125,"count":96,"type":"SCALAR"},{"bufferView":2,"byteOffset":251280,"componentType":5126,"count":4,"max":[1,0,5.439223766326904],"min":[-1,0,3.4392237663269043],"type":"VEC3"},{"bufferView":2,"byteOffset":251328,"componentType":5126,"count":4,"max":[0,1,0],"min":[0,1,0],"type":"VEC3"},{"bufferView":1,"byteOffset":83760,"componentType":5126,"count":4,"max":[1,1],"min":[0,0],"type":"VEC2"},{"bufferView":0,"byteOffset":85872,"componentType":5125,"count":6,"type":"SCALAR"},{"bufferView":2,"byteOffset":251376,"componentType":5126,"count":45,"max":[0.06292414665222168,0.011419489979743958,0.1398211568593979],"min":[-0.06292438507080078,-0.011445745825767517,-0.13985826075077057],"type":"VEC3"},{"bufferView":2,"byteOffset":251916,"componentType":5126,"count":45,"max":[1,1,0.6688764095306396],"min":[-1,-1,-0.6690862774848938],"type":"VEC3"},{"bufferView":1,"byteOffset":83792,"componentType":5126,"count":45,"max":[1,1],"min":[0,0],"type":"VEC2"},{"bufferView":0,"byteOffset":85896,"componentType":5125,"count":96,"type":"SCALAR"},{"bufferView":2,"byteOffset":252456,"componentType":5126,"count":4,"max":[1,0,1],"min":[-1,0,-1],"type":"VEC3"},{"bufferView":2,"byteOffset":252504,"componentType":5126,"count":4,"max":[0,1,0],"min":[0,1,0],"type":"VEC3"},{"bufferView":1,"byteOffset":84152,"componentType":5126,"count":4,"max":[1,1],"min":[0,0],"type":"VEC2"},{"bufferView":0,"byteOffset":86280,"componentType":5125,"count":6,"type":"SCALAR"},{"bufferView":2,"byteOffset":252552,"componentType":5126,"count":2018,"max":[-1.1969417333602905,-0.13728898763656616,0.6371102333068848],"min":[-1.366713523864746,-0.14349572360515594,-0.6272168159484863],"type":"VEC3"},{"bufferView":2,"byteOffset":276768,"componentType":5126,"count":2018,"max":[1,0,1],"min":[-1,-1,-1],"type":"VEC3"},{"bufferView":1,"byteOffset":84184,"componentType":5126,"count":2018,"max":[1,1],"min":[0,1],"type":"VEC2"},{"bufferView":0,"byteOffset":86304,"componentType":5125,"count":3594,"type":"SCALAR"},{"bufferView":2,"byteOffset":300984,"componentType":5126,"count":1809,"max":[1.6865280866622925,0.1365043669939041,1.0682286024093628],"min":[-1.6134721040725708,-0.14349572360515594,-1.071771264076233],"type":"VEC3"},{"bufferView":2,"byteOffset":322692,"componentType":5126,"count":1809,"max":[1,1,1],"min":[-1,-1,-1],"type":"VEC3"},{"bufferView":1,"byteOffset":100328,"componentType":5126,"count":1809,"max":[0.8750000596046448,1],"min":[0.125,0],"type":"VEC2"},{"bufferView":0,"byteOffset":100680,"componentType":5125,"count":4380,"type":"SCALAR"},{"bufferView":2,"byteOffset":344400,"componentType":5126,"count":8,"max":[-1.486352801322937,0.13084080815315247,0.2975711524486542],"min":[-1.5062878131866455,-0.13764533400535583,-0.3011839687824249],"type":"VEC3"},{"bufferView":2,"byteOffset":344496,"componentType":5126,"count":8,"max":[0,1,0],"min":[0,-1,0],"type":"VEC3"},{"bufferView":1,"byteOffset":114800,"componentType":5126,"count":8,"max":[0.8714677095413208,1],"min":[0,0.35171276330947876],"type":"VEC2"},{"bufferView":0,"byteOffset":118200,"componentType":5125,"count":12,"type":"SCALAR"},{"bufferView":2,"byteOffset":344592,"componentType":5126,"count":42,"max":[1.363088846206665,0.13048823177814484,1.0089188814163208],"min":[-1.4771382808685303,0.13048823177814484,-1.0124614238739014],"type":"VEC3"},{"bufferView":2,"byteOffset":345096,"componentType":5126,"count":42,"max":[0,1,0],"min":[0,1,0],"type":"VEC3"},{"bufferView":1,"byteOffset":114864,"componentType":5126,"count":42,"max":[0.8898370265960693,0.8465971946716309],"min":[0.10320621728897095,0.10827624797821045],"type":"VEC2"},{"bufferView":0,"byteOffset":118248,"componentType":5125,"count":120,"type":"SCALAR"},{"bufferView":2,"byteOffset":345600,"componentType":5126,"count":45,"max":[0.06292414665222168,0.011419489979743958,0.1398211568593979],"min":[-0.06292438507080078,-0.011445745825767517,-0.13985826075077057],"type":"VEC3"},{"bufferView":2,"byteOffset":346140,"componentType":5126,"count":45,"max":[1,1,0.6688764095306396],"min":[-1,-1,-0.6690862774848938],"type":"VEC3"},{"bufferView":1,"byteOffset":115200,"componentType":5126,"count":45,"max":[1,1],"min":[0,0],"type":"VEC2"},{"bufferView":0,"byteOffset":118728,"componentType":5125,"count":96,"type":"SCALAR"},{"bufferView":2,"byteOffset":346680,"componentType":5126,"count":64,"max":[1.047547459602356,0,18.2313175201416],"min":[-1,-0.0002954155206680298,-5.4172444343566895],"type":"VEC3"},{"bufferView":2,"byteOffset":347448,"componentType":5126,"count":64,"max":[0,1,0],"min":[0,1,0],"type":"VEC3"},{"bufferView":1,"byteOffset":115560,"componentType":5126,"count":64,"max":[1,1],"min":[0,0],"type":"VEC2"},{"bufferView":0,"byteOffset":119112,"componentType":5125,"count":96,"type":"SCALAR"},{"bufferView":2,"byteOffset":348216,"componentType":5126,"count":4,"max":[1,0,5.439223766326904],"min":[-1,0,3.4392237663269043],"type":"VEC3"},{"bufferView":2,"byteOffset":348264,"componentType":5126,"count":4,"max":[0,1,0],"min":[0,1,0],"type":"VEC3"},{"bufferView":1,"byteOffset":116072,"componentType":5126,"count":4,"max":[1,1],"min":[0,0],"type":"VEC2"},{"bufferView":0,"byteOffset":119496,"componentType":5125,"count":6,"type":"SCALAR"},{"bufferView":2,"byteOffset":348312,"componentType":5126,"count":4,"max":[1,0,1],"min":[-1,0,-1],"type":"VEC3"},{"bufferView":2,"byteOffset":348360,"componentType":5126,"count":4,"max":[0,1,0],"min":[0,1,0],"type":"VEC3"},{"bufferView":1,"byteOffset":116104,"componentType":5126,"count":4,"max":[1,1],"min":[0,0],"type":"VEC2"},{"bufferView":0,"byteOffset":119520,"componentType":5125,"count":6,"type":"SCALAR"},{"bufferView":2,"byteOffset":348408,"componentType":5126,"count":2019,"max":[-1.1969417333602905,-0.13728898763656616,0.6423845291137695],"min":[-1.366713523864746,-0.14349572360515594,-0.6219425201416016],"type":"VEC3"},{"bufferView":2,"byteOffset":372636,"componentType":5126,"count":2019,"max":[1,0,1],"min":[-1,-1,-1],"type":"VEC3"},{"bufferView":1,"byteOffset":116136,"componentType":5126,"count":2019,"max":[1,1],"min":[0,1],"type":"VEC2"},{"bufferView":0,"byteOffset":119544,"componentType":5125,"count":3597,"type":"SCALAR"},{"bufferView":2,"byteOffset":396864,"componentType":5126,"count":1810,"max":[1.6865280866622925,0.1365043669939041,1.0682286024093628],"min":[-1.6134721040725708,-0.14349572360515594,-1.071771264076233],"type":"VEC3"},{"bufferView":2,"byteOffset":418584,"componentType":5126,"count":1810,"max":[1,1,1],"min":[-1,-1,-1],"type":"VEC3"},{"bufferView":1,"byteOffset":132288,"componentType":5126,"count":1810,"max":[0.8750000596046448,1],"min":[0.125,0],"type":"VEC2"},{"bufferView":0,"byteOffset":133932,"componentType":5125,"count":4383,"type":"SCALAR"},{"bufferView":2,"byteOffset":440304,"componentType":5126,"count":8,"max":[-1.486352801322937,0.13084080815315247,0.2975711524486542],"min":[-1.5062878131866455,-0.13764533400535583,-0.3011839687824249],"type":"VEC3"},{"bufferView":2,"byteOffset":440400,"componentType":5126,"count":8,"max":[0,1,0],"min":[0,-1,0],"type":"VEC3"},{"bufferView":1,"byteOffset":146768,"componentType":5126,"count":8,"max":[0.8714677095413208,1],"min":[0,0.35171276330947876],"type":"VEC2"},{"bufferView":0,"byteOffset":151464,"componentType":5125,"count":12,"type":"SCALAR"},{"bufferView":2,"byteOffset":440496,"componentType":5126,"count":42,"max":[1.363088846206665,0.13048823177814484,1.0089188814163208],"min":[-1.4771382808685303,0.13048823177814484,-1.0124614238739014],"type":"VEC3"},{"bufferView":2,"byteOffset":441000,"componentType":5126,"count":42,"max":[0,1,0],"min":[0,1,0],"type":"VEC3"},{"bufferView":1,"byteOffset":146832,"componentType":5126,"count":42,"max":[0.8292479515075684,0.8022213578224182],"min":[0.1728406548500061,0.12279707193374634],"type":"VEC2"},{"bufferView":0,"byteOffset":151512,"componentType":5125,"count":120,"type":"SCALAR"},{"bufferView":2,"byteOffset":441504,"componentType":5126,"count":64,"max":[1.047547459602356,0,18.2313175201416],"min":[-1,-0.0002954155206680298,-5.4172444343566895],"type":"VEC3"},{"bufferView":2,"byteOffset":442272,"componentType":5126,"count":64,"max":[0,1,0],"min":[0,1,0],"type":"VEC3"},{"bufferView":1,"byteOffset":147168,"componentType":5126,"count":64,"max":[1,1],"min":[0,0],"type":"VEC2"},{"bufferView":0,"byteOffset":151992,"componentType":5125,"count":96,"type":"SCALAR"},{"bufferView":2,"byteOffset":443040,"componentType":5126,"count":4,"max":[1,0,5.439223766326904],"min":[-1,0,3.4392237663269043],"type":"VEC3"},{"bufferView":2,"byteOffset":443088,"componentType":5126,"count":4,"max":[0,1,0],"min":[0,1,0],"type":"VEC3"},{"bufferView":1,"byteOffset":147680,"componentType":5126,"count":4,"max":[1,1],"min":[0,0],"type":"VEC2"},{"bufferView":0,"byteOffset":152376,"componentType":5125,"count":6,"type":"SCALAR"},{"bufferView":2,"byteOffset":443136,"componentType":5126,"count":45,"max":[0.06292414665222168,0.011419489979743958,0.1398211568593979],"min":[-0.06292438507080078,-0.011445745825767517,-0.13985826075077057],"type":"VEC3"},{"bufferView":2,"byteOffset":443676,"componentType":5126,"count":45,"max":[1,1,0.6688764095306396],"min":[-1,-1,-0.6690862774848938],"type":"VEC3"},{"bufferView":1,"byteOffset":147712,"componentType":5126,"count":45,"max":[1,1],"min":[0,0],"type":"VEC2"},{"bufferView":0,"byteOffset":152400,"componentType":5125,"count":96,"type":"SCALAR"},{"bufferView":2,"byteOffset":444216,"componentType":5126,"count":4,"max":[1,0,1],"min":[-1,0,-1],"type":"VEC3"},{"bufferView":2,"byteOffset":444264,"componentType":5126,"count":4,"max":[0,1,0],"min":[0,1,0],"type":"VEC3"},{"bufferView":1,"byteOffset":148072,"componentType":5126,"count":4,"max":[1,1],"min":[0,0],"type":"VEC2"},{"bufferView":0,"byteOffset":152784,"componentType":5125,"count":6,"type":"SCALAR"},{"bufferView":2,"byteOffset":444312,"componentType":5126,"count":2017,"max":[-1.1969417333602905,-0.13728898763656616,0.6444177627563477],"min":[-1.366713523864746,-0.14349572360515594,-0.6199092864990234],"type":"VEC3"},{"bufferView":2,"byteOffset":468516,"componentType":5126,"count":2017,"max":[1,0,1],"min":[-1,-1,-1],"type":"VEC3"},{"bufferView":1,"byteOffset":148104,"componentType":5126,"count":2017,"max":[1,1],"min":[0,1],"type":"VEC2"},{"bufferView":0,"byteOffset":152808,"componentType":5125,"count":3591,"type":"SCALAR"},{"bufferView":2,"byteOffset":492720,"componentType":5126,"count":1808,"max":[1.6865280866622925,0.1365043669939041,1.0682286024093628],"min":[-1.6134721040725708,-0.14349572360515594,-1.071771264076233],"type":"VEC3"},{"bufferView":2,"byteOffset":514416,"componentType":5126,"count":1808,"max":[1,1,1],"min":[-1,-1,-1],"type":"VEC3"},{"bufferView":1,"byteOffset":164240,"componentType":5126,"count":1808,"max":[0.8750000596046448,1],"min":[0.125,0],"type":"VEC2"},{"bufferView":0,"byteOffset":167172,"componentType":5125,"count":4377,"type":"SCALAR"},{"bufferView":2,"byteOffset":536112,"componentType":5126,"count":8,"max":[-1.486352801322937,0.13084080815315247,0.2975711524486542],"min":[-1.5062878131866455,-0.13764533400535583,-0.3011839687824249],"type":"VEC3"},{"bufferView":2,"byteOffset":536208,"componentType":5126,"count":8,"max":[0,1,0],"min":[0,-1,0],"type":"VEC3"},{"bufferView":1,"byteOffset":178704,"componentType":5126,"count":8,"max":[0.8714677095413208,1],"min":[0,0.35171276330947876],"type":"VEC2"},{"bufferView":0,"byteOffset":184680,"componentType":5125,"count":12,"type":"SCALAR"},{"bufferView":2,"byteOffset":536304,"componentType":5126,"count":42,"max":[1.363088846206665,0.13048823177814484,1.0089188814163208],"min":[-1.4771382808685303,0.13048823177814484,-1.0124614238739014],"type":"VEC3"},{"bufferView":2,"byteOffset":536808,"componentType":5126,"count":42,"max":[0,1,0],"min":[0,1,0],"type":"VEC3"},{"bufferView":1,"byteOffset":178768,"componentType":5126,"count":42,"max":[0.9309910535812378,0.8986413478851318],"min":[0.07035237550735474,0.09190452098846436],"type":"VEC2"},{"bufferView":0,"byteOffset":184728,"componentType":5125,"count":120,"type":"SCALAR"}],"asset":{"extras":{"author":"maxns1980 (https://sketchfab.com/maxns1980)","license":"CC-BY-4.0 (http://creativecommons.org/licenses/by/4.0/)","source":"https://sketchfab.com/3d-models/nintendo-switch-game-cartridge-v2-2e681c294545411d98eb61a98f2dba3e","title":"Nintendo Switch game Cartridge v2"},"generator":"Sketchfab-16.63.0","version":"2.0"},"bufferViews":[{"buffer":0,"byteLength":185208,"name":"floatBufferViews","target":34963},{"buffer":0,"byteLength":179104,"byteOffset":185208,"byteStride":8,"name":"floatBufferViews","target":34962},{"buffer":0,"byteLength":537312,"byteOffset":364312,"byteStride":12,"name":"floatBufferViews","target":34962}],"buffers":[{"byteLength":901624,"uri":"scene.bin"}],"images":[{"uri":"label.jpg","mimeType":"image/jpeg"},{"uri":"label.jpg","mimeType":"image/jpeg"},{"uri":"label.jpg","mimeType":"image/jpeg"},{"uri":"label.jpg","mimeType":"image/jpeg"},{"uri":"label.jpg","mimeType":"image/jpeg"}],"materials":[{"doubleSided":true,"name":"material_0","pbrMetallicRoughness":{"metallicFactor":0,"roughnessFactor":0.6}},{"doubleSided":true,"name":"Material.003","pbrMetallicRoughness":{"baseColorFactor":[0,0,0,1],"metallicFactor":0.533679}},{"doubleSided":true,"name":"metal","pbrMetallicRoughness":{"baseColorFactor":[0.709719,0.800323,0.153965,1],"roughnessFactor":0.502591}},{"doubleSided":true,"name":"Material.001","pbrMetallicRoughness":{"baseColorTexture":{"index":0},"roughnessFactor":0.3}},{"doubleSided":true,"name":"Material.002","pbrMetallicRoughness":{"baseColorFactor":[0.0282057,0.0282057,0.0282057,1]}},{"doubleSided":true,"name":"Material.004","pbrMetallicRoughness":{"baseColorFactor":[0,0,0,1],"metallicFactor":0.533679}},{"doubleSided":true,"name":"metal.001","pbrMetallicRoughness":{"baseColorFactor":[0.709719,0.800323,0.153965,1],"roughnessFactor":0.502591}},{"doubleSided":true,"name":"Game2","pbrMetallicRoughness":{"baseColorTexture":{"index":1},"roughnessFactor":0.3}},{"doubleSided":true,"name":"Material.005","pbrMetallicRoughness":{"baseColorFactor":[0.0282057,0.0282057,0.0282057,1]}},{"doubleSided":true,"name":"metal.002","pbrMetallicRoughness":{"baseColorFactor":[0.709719,0.800323,0.153965,1],"roughnessFactor":0.502591}},{"doubleSided":true,"name":"Material.008","pbrMetallicRoughness":{"baseColorFactor":[0,0,0,1],"metallicFactor":0.533679}},{"doubleSided":true,"name":"Game2.001","pbrMetallicRoughness":{"baseColorTexture":{"index":1},"roughnessFactor":0.3}},{"doubleSided":true,"name":"Material.007","pbrMetallicRoughness":{"baseColorFactor":[0.0282057,0.0282057,0.0282057,1]}},{"doubleSided":true,"name":"MarioParty","pbrMetallicRoughness":{"baseColorTexture":{"index":2},"roughnessFactor":0.3}},{"doubleSided":true,"name":"Material.009","pbrMetallicRoughness":{"baseColorFactor":[0,0,0,1],"metallicFactor":0.533679}},{"doubleSided":true,"name":"metal.003","pbrMetallicRoughness":{"baseColorFactor":[0.709719,0.800323,0.153965,1],"roughnessFactor":0.502591}},{"doubleSided":true,"name":"Game2.002","pbrMetallicRoughness":{"baseColorTexture":{"index":1},"roughnessFactor":0.3}},{"doubleSided":true,"name":"Material.010","pbrMetallicRoughness":{"baseColorFactor":[0.0282057,0.0282057,0.0282057,1]}},{"doubleSided":true,"name":"MetroidDread","pbrMetallicRoughness":{"baseColorTexture":{"index":3},"roughnessFactor":0.3}},{"doubleSided":true,"name":"metal.004","pbrMetallicRoughness":{"baseColorFactor":[0.709719,0.800323,0.153965,1],"roughnessFactor":0.502591}},{"doubleSided":true,"name":"Material.011","pbrMetallicRoughness":{"baseColorFactor":[0,0,0,1],"metallicFactor":0.533679}},{"doubleSided":true,"name":"Game2.003","pbrMetallicRoughness":{"baseColorTexture":{"index":1},"roughnessFactor":0.3}},{"doubleSided":true,"name":"Material.006","pbrMetallicRoughness":{"baseColorFactor":[0.0282057,0.0282057,0.0282057,1]}},{"doubleSided":true,"name":"Hogward","pbrMetallicRoughness":{"baseColorTexture":{"index":4},"roughnessFactor":0.3}}],"meshes":[{"name":"Object_0","primitives":[{"attributes":{"NORMAL":1,"POSITION":0,"TEXCOORD_0":2},"indices":3,"material":1,"mode":4}]},{"name":"Object_1","primitives":[{"attributes":{"NORMAL":5,"POSITION":4,"TEXCOORD_0":6},"indices":7,"material":2,"mode":4}]},{"name":"Object_2","primitives":[{"attributes":{"NORMAL":9,"POSITION":8,"TEXCOORD_0":10},"indices":11,"material":0,"mode":4}]},{"name":"Object_3","primitives":[{"attributes":{"NORMAL":13,"POSITION":12,"TEXCOORD_0":14},"indices":15,"material":0,"mode":4}]},{"name":"Object_4","primitives":[{"attributes":{"NORMAL":17,"POSITION":16,"TEXCOORD_0":18},"indices":19,"material":3,"mode":4}]},{"name":"Object_5","primitives":[{"attributes":{"NORMAL":21,"POSITION":20,"TEXCOORD_0":22},"indices":23,"material":4,"mode":4}]},{"name":"Object_6","primitives":[{"attributes":{"NORMAL":25,"POSITION":24,"TEXCOORD_0":26},"indices":27,"material":1,"mode":4}]},{"name":"Object_7","primitives":[{"attributes":{"NORMAL":29,"POSITION":28,"TEXCOORD_0":30},"indices":31,"material":5,"mode":4}]},{"name":"Object_8","primitives":[{"attributes":{"NORMAL":33,"POSITION":32,"TEXCOORD_0":34},"indices":35,"material":6,"mode":4}]},{"name":"Object_9","primitives":[{"attributes":{"NORMAL":37,"POSITION":36,"TEXCOORD_0":38},"indices":39,"material":0,"mode":4}]},{"name":"Object_10","primitives":[{"attributes":{"NORMAL":41,"POSITION":40,"TEXCOORD_0":42},"indices":43,"material":7,"mode":4}]},{"name":"Object_11","primitives":[{"attributes":{"NORMAL":45,"POSITION":44,"TEXCOORD_0":46},"indices":47,"material":7,"mode":4}]},{"name":"Object_12","primitives":[{"attributes":{"NORMAL":49,"POSITION":48,"TEXCOORD_0":50},"indices":51,"material":8,"mode":4}]},{"name":"Object_13","primitives":[{"attributes":{"NORMAL":53,"POSITION":52,"TEXCOORD_0":54},"indices":55,"material":5,"mode":4}]},{"name":"Object_14","primitives":[{"attributes":{"NORMAL":57,"POSITION":56,"TEXCOORD_0":58},"indices":59,"material":3,"mode":4}]},{"name":"Object_15","primitives":[{"attributes":{"NORMAL":61,"POSITION":60,"TEXCOORD_0":62},"indices":63,"material":9,"mode":4}]},{"name":"Object_16","primitives":[{"attributes":{"NORMAL":65,"POSITION":64,"TEXCOORD_0":66},"indices":67,"material":0,"mode":4}]},{"name":"Object_17","primitives":[{"attributes":{"NORMAL":69,"POSITION":68,"TEXCOORD_0":70},"indices":71,"material":10,"mode":4}]},{"name":"Object_18","primitives":[{"attributes":{"NORMAL":73,"POSITION":72,"TEXCOORD_0":74},"indices":75,"material":11,"mode":4}]},{"name":"Object_19","primitives":[{"attributes":{"NORMAL":77,"POSITION":76,"TEXCOORD_0":78},"indices":79,"material":11,"mode":4}]},{"name":"Object_20","primitives":[{"attributes":{"NORMAL":81,"POSITION":80,"TEXCOORD_0":82},"indices":83,"material":12,"mode":4}]},{"name":"Object_21","primitives":[{"attributes":{"NORMAL":85,"POSITION":84,"TEXCOORD_0":86},"indices":87,"material":10,"mode":4}]},{"name":"Object_22","primitives":[{"attributes":{"NORMAL":89,"POSITION":88,"TEXCOORD_0":90},"indices":91,"material":13,"mode":4}]},{"name":"Object_23","primitives":[{"attributes":{"NORMAL":93,"POSITION":92,"TEXCOORD_0":94},"indices":95,"material":14,"mode":4}]},{"name":"Object_24","primitives":[{"attributes":{"NORMAL":97,"POSITION":96,"TEXCOORD_0":98},"indices":99,"material":15,"mode":4}]},{"name":"Object_25","primitives":[{"attributes":{"NORMAL":101,"POSITION":100,"TEXCOORD_0":102},"indices":103,"material":0,"mode":4}]},{"name":"Object_26","primitives":[{"attributes":{"NORMAL":105,"POSITION":104,"TEXCOORD_0":106},"indices":107,"material":16,"mode":4}]},{"name":"Object_27","primitives":[{"attributes":{"NORMAL":109,"POSITION":108,"TEXCOORD_0":110},"indices":111,"material":16,"mode":4}]},{"name":"Object_28","primitives":[{"attributes":{"NORMAL":113,"POSITION":112,"TEXCOORD_0":114},"indices":115,"material":17,"mode":4}]},{"name":"Object_29","primitives":[{"attributes":{"NORMAL":117,"POSITION":116,"TEXCOORD_0":118},"indices":119,"material":14,"mode":4}]},{"name":"Object_30","primitives":[{"attributes":{"NORMAL":121,"POSITION":120,"TEXCOORD_0":122},"indices":123,"material":18,"mode":4}]},{"name":"Object_31","primitives":[{"attributes":{"NORMAL":125,"POSITION":124,"TEXCOORD_0":126},"indices":127,"material":19,"mode":4}]},{"name":"Object_32","primitives":[{"attributes":{"NORMAL":129,"POSITION":128,"TEXCOORD_0":130},"indices":131,"material":0,"mode":4}]},{"name":"Object_33","primitives":[{"attributes":{"NORMAL":133,"POSITION":132,"TEXCOORD_0":134},"indices":135,"material":20,"mode":4}]},{"name":"Object_34","primitives":[{"attributes":{"NORMAL":137,"POSITION":136,"TEXCOORD_0":138},"indices":139,"material":21,"mode":4}]},{"name":"Object_35","primitives":[{"attributes":{"NORMAL":141,"POSITION":140,"TEXCOORD_0":142},"indices":143,"material":21,"mode":4}]},{"name":"Object_36","primitives":[{"attributes":{"NORMAL":145,"POSITION":144,"TEXCOORD_0":146},"indices":147,"material":22,"mode":4}]},{"name":"Object_37","primitives":[{"attributes":{"NORMAL":149,"POSITION":148,"TEXCOORD_0":150},"indices":151,"material":20,"mode":4}]},{"name":"Object_38","primitives":[{"attributes":{"NORMAL":153,"POSITION":152,"TEXCOORD_0":154},"indices":155,"material":23,"mode":4}]}],"nodes":[{"children":[1],"matrix":[1,0,0,0,0,2.220446049250313e-16,-1,0,0,1,2.220446049250313e-16,0,0,0,0,1],"name":"Sketchfab_model"},{"children":[2],"name":"root"},{"children":[3,5,8,10],"matrix":[1,0,0,0,0,2.220446049250313e-16,1,0,0,-1,2.220446049250313e-16,0,0,0,0,1],"name":"GLTF_SceneRootNode"},{"children":[4],"matrix":[0.8765888810157776,0,0,0,0,0.8765888810157776,0,0,0,0,0.8765888810157776,0,1.4830749034881592,0.13115337491035461,0.00011632100358838215,1],"name":"Plane.014_0"},{"mesh":0,"name":"Object_4"},{"children":[6,7],"matrix":[0.7200002670288086,0,0,0,0,1,0,0,0,0,0.08000001311302185,0,0.7665881514549255,-0.11214129626750946,-0.4972010552883148,1],"name":"Plane.004_1"},{"mesh":1,"name":"Object_6"},{"mesh":2,"name":"Object_7"},{"children":[9],"name":"Plane_2"},{"mesh":3,"name":"Object_9"},{"children":[11,12,13],"matrix":[1,0,0,0,0,1,0,0,0,0,1,0,-0.0365280956029892,0.0034956554882228374,0.001771286129951477,1],"name":"Cube_3"},{"mesh":4,"name":"Object_11"},{"mesh":5,"name":"Object_12"},{"mesh":6,"name":"Object_13"},{"children":[15],"matrix":[0.8765888810157776,0,0,0,0,0.8765888810157776,0,0,0,0,0.8765888810157776,0,1.4830749034881592,0.13115337491035461,2.724787950515747,1],"name":"Plane.001_4"},{"mesh":7,"name":"Object_15"},{"children":[17,18],"matrix":[0.7200002670288086,0,0,0,0,1,0,0,0,0,0.08000001311302185,0,0.7665881514549255,-0.11214129626750946,2.227470636367798,1],"name":"Plane.002_5"},{"mesh":8,"name":"Object_17"},{"mesh":9,"name":"Object_18"},{"children":[20],"matrix":[1,0,0,0,0,1,0,0,0,0,1,0,0,0,2.7246716022491455,1],"name":"Game2_6"},{"mesh":10,"name":"Object_20"},{"children":[22,23,24],"matrix":[1,0,0,0,0,1,0,0,0,0,1,0,-0.0365280956029892,0.0034956554882228374,2.726442813873291,1],"name":"Cube.001_7"},{"mesh":11,"name":"Object_22"},{"mesh":12,"name":"Object_23"},{"mesh":13,"name":"Object_24"},{"children":[26],"matrix":[2.1691997618480399e-16,1.0675640986158225e-8,0.2442301809787748,0,-1.0675640986158225e-8,-0.24423018097877458,1.0675640986158225e-8,0,0.2442301809787748,-1.0675640986158225e-8,2.1691997618480399e-16,0,-1.2725727558135986,-0.1484471559524536,18.053020477294922,1],"name":"Text_8"},{"mesh":14,"name":"Object_26"},{"children":[28,29],"matrix":[0.7200002670288086,0,0,0,0,1,0,0,0,0,0.08000001311302185,0,0.7665881514549255,-0.11214129626750946,4.774444580078125,1],"name":"Plane.003_9"},{"mesh":15,"name":"Object_28"},{"mesh":16,"name":"Object_29"},{"children":[31],"matrix":[0.8765888810157776,0,0,0,0,0.8765888810157776,0,0,0,0,0.8765888810157776,0,1.4830749034881592,0.13115337491035461,5.271761894226074,1],"name":"Plane.005_10"},{"mesh":17,"name":"Object_31"},{"children":[33],"matrix":[1,0,0,0,0,1,0,0,0,0,1,0,0,0,5.271645545959473,1],"name":"Game3_11"},{"mesh":18,"name":"Object_33"},{"children":[35,36,37,38],"matrix":[1,0,0,0,0,1,0,0,0,0,1,0,-0.0365280956029892,0.0034956554882228374,5.273416996002197,1],"name":"Cube.002_12"},{"mesh":19,"name":"Object_35"},{"mesh":20,"name":"Object_36"},{"mesh":21,"name":"Object_37"},{"mesh":22,"name":"Object_38"},{"children":[40],"matrix":[0.8765888810157776,0,0,0,0,0.8765888810157776,0,0,0,0,0.8765888810157776,0,1.4830749034881592,0.13115337491035461,7.924159526824951,1],"name":"Plane.006_13"},{"mesh":23,"name":"Object_40"},{"children":[42,43],"matrix":[0.7200002670288086,0,0,0,0,1,0,0,0,0,0.08000001311302185,0,0.7665881514549255,-0.11214129626750946,7.426842212677002,1],"name":"Plane.007_14"},{"mesh":24,"name":"Object_42"},{"mesh":25,"name":"Object_43"},{"children":[45],"matrix":[1,0,0,0,0,1,0,0,0,0,1,0,0,0,7.92404317855835,1],"name":"Game4_15"},{"mesh":26,"name":"Object_45"},{"children":[47,48,49,50],"matrix":[1,0,0,0,0,1,0,0,0,0,1,0,-0.0365280956029892,0.0034956554882228374,7.925814628601074,1],"name":"Cube.003_16"},{"mesh":27,"name":"Object_47"},{"mesh":28,"name":"Object_48"},{"mesh":29,"name":"Object_49"},{"mesh":30,"name":"Object_50"},{"children":[52,53],"matrix":[0.7200002670288086,0,0,0,0,1,0,0,0,0,0.08000001311302185,0,0.7665881514549255,-0.11214129626750946,9.938366889953613,1],"name":"Plane.008_17"},{"mesh":31,"name":"Object_52"},{"mesh":32,"name":"Object_53"},{"children":[55],"matrix":[0.8765888810157776,0,0,0,0,0.8765888810157776,0,0,0,0,0.8765888810157776,0,1.4830749034881592,0.13115337491035461,10.435684204101562,1],"name":"Plane.009_18"},{"mesh":33,"name":"Object_55"},{"children":[57],"matrix":[1,0,0,0,0,1,0,0,0,0,1,0,0,0,10.435567855834961,1],"name":"Game4.001_19"},{"mesh":34,"name":"Object_57"},{"children":[59,60,61,62],"matrix":[1,0,0,0,0,1,0,0,0,0,1,0,-0.0365280956029892,0.0034956554882228374,10.437339782714844,1],"name":"Cube.004_20"},{"mesh":35,"name":"Object_59"},{"mesh":36,"name":"Object_60"},{"mesh":37,"name":"Object_61"},{"mesh":38,"name":"Object_62"}],"samplers":[{"magFilter":9729,"minFilter":9987,"wrapS":10497,"wrapT":10497}],"scene":0,"scenes":[{"name":"Sketchfab_Scene","nodes":[0]}],"textures":[{"sampler":0,"source":0},{"sampler":0,"source":1},{"sampler":0,"source":2},{"sampler":0,"source":3},{"sampler":0,"source":4}]}